<svg xmlns="http://www.w3.org/2000/svg" viewBox="0 0 512 512">
  <defs>
    <linearGradient id="grad" x1="0%" y1="0%" x2="100%" y2="100%">
      <stop offset="0%" style="stop-color:#3b82f6;stop-opacity:1" />
      <stop offset="100%" style="stop-color:#6366f1;stop-opacity:1" />
    </linearGradient>
  </defs>
  <rect width="512" height="512" rx="96" fill="url(#grad)"/>
  <path d="M256 120c-75 0-136 61-136 136s61 136 136 136 136-61 136-136-61-136-136-136zm0 240c-57.4 0-104-46.6-104-104s46.6-104 104-104 104 46.6 104 104-46.6 104-104 104z" fill="white"/>
  <circle cx="256" cy="256" r="48" fill="white"/>
  <rect x="240" y="136" width="32" height="48" rx="8" fill="white"/>
  <rect x="240" y="328" width="32" height="48" rx="8" fill="white"/>
  <rect x="136" y="240" width="48" height="32" rx="8" fill="white"/>
  <rect x="328" y="240" width="48" height="32" rx="8" fill="white"/>
</svg>